<svg fill="#000000" xmlns="http://www.w3.org/2000/svg"  viewBox="0 0 50 50" width="30px" height="30px"><path fill="none" fill-rule="evenodd" stroke="#000000" stroke-linecap="round" stroke-linejoin="round" stroke-miterlimit="10" stroke-width="2" d="M24.889,47c4.044-3.648,16.925-11.282,21.251-12.686l0,0L19.437,14.151l1.325-0.898l11.192,8.413l0,0c1.175,0.842,11.049,2.807,15.046-2.807l0,0L25.075,3l0,0C21.408,6.462,7.926,13.78,3.036,15.464l0,0l27.495,20.797l-1.052,0.982l-9.557-7.221l0,0C16.773,27.648,9.662,24.52,3,30.583l0,0L24.889,47L24.889,47L24.889,47L24.889,47z" clip-rule="evenodd"/></svg>