<svg xmlns="http://www.w3.org/2000/svg" viewBox="0 0 100 125" x="0px" y="0px"><title>seo_outline</title><path d="M58.883,78.378H6.818a1.853,1.853,0,0,1-1.851-1.851V26.558h80.2V52.081a1.234,1.234,0,0,0,2.467,0V13.6a4.323,4.323,0,0,0-4.318-4.318H6.818A4.323,4.323,0,0,0,2.5,13.6V76.527a4.323,4.323,0,0,0,4.318,4.318H58.883a1.234,1.234,0,1,0,0-2.467ZM6.818,11.752H83.312A1.853,1.853,0,0,1,85.163,13.6V24.091H4.967V13.6A1.853,1.853,0,0,1,6.818,11.752Z"/><path d="M11.136,21.622a3.7,3.7,0,1,0-3.7-3.7A3.7,3.7,0,0,0,11.136,21.622Zm0-4.934A1.234,1.234,0,1,1,9.9,17.922,1.236,1.236,0,0,1,11.136,16.688Z"/><path d="M21.007,21.622a3.7,3.7,0,1,0-3.7-3.7A3.7,3.7,0,0,0,21.007,21.622Zm0-4.934a1.234,1.234,0,1,1-1.235,1.234A1.235,1.235,0,0,1,21.007,16.688Z"/><path d="M30.876,21.622a3.7,3.7,0,1,0-3.7-3.7A3.7,3.7,0,0,0,30.876,21.622Zm0-4.934a1.234,1.234,0,1,1-1.233,1.234A1.236,1.236,0,0,1,30.876,16.688Z"/><path d="M13.6,70.974H52.891a1.234,1.234,0,0,0,0-2.467H13.6a1.234,1.234,0,1,0,0,2.467Z"/><path d="M77.761,43.831A1.234,1.234,0,0,0,76.527,42.6H13.6a1.234,1.234,0,1,0,0,2.467H76.527A1.234,1.234,0,0,0,77.761,43.831Z"/><path d="M76.527,33.961H13.6a1.234,1.234,0,1,0,0,2.467H76.527a1.234,1.234,0,1,0,0-2.467Z"/><path d="M13.6,62.338H52.711a1.234,1.234,0,1,0,0-2.467H13.6a1.234,1.234,0,1,0,0,2.467Z"/><path d="M58.147,52.468a1.234,1.234,0,0,0-1.234-1.234H13.6a1.234,1.234,0,1,0,0,2.467h43.31A1.234,1.234,0,0,0,58.147,52.468Z"/><path d="M96.742,85.267l-9.113-9.113a2.668,2.668,0,0,0-3.267-.323l-.548-.548a15.846,15.846,0,1,0-1.744,1.744l.545.545a2.6,2.6,0,0,0,.325,3.27l9.113,9.113a2.594,2.594,0,0,0,3.668,0l1.022-1.021A2.6,2.6,0,0,0,96.742,85.267ZM58.483,65.029A13.333,13.333,0,1,1,71.816,78.363,13.349,13.349,0,0,1,58.483,65.029ZM95,87.19l-1.021,1.02h-.061c-.049,0-.116,0-.117,0L84.686,79.1a.125.125,0,0,1,0-.177L85.705,77.9a.139.139,0,0,1,.178,0L95,87.012A.126.126,0,0,1,95,87.19Z"/><path d="M65.878,57.347a1.234,1.234,0,0,0-1.744,0,10.872,10.872,0,0,0,0,15.367,1.234,1.234,0,0,0,1.744-1.746,8.409,8.409,0,0,1,0-11.876A1.232,1.232,0,0,0,65.878,57.347Z"/><text x="0" y="115" fill="#000000" font-size="5px" font-weight="bold" font-family="'Helvetica Neue', Helvetica, Arial-Unicode, Arial, Sans-serif">Created by Birckhead Creative</text><text x="0" y="120" fill="#000000" font-size="5px" font-weight="bold" font-family="'Helvetica Neue', Helvetica, Arial-Unicode, Arial, Sans-serif">from the Noun Project</text></svg>