<?xml version="1.0" encoding="iso-8859-1"?>
<!-- Generator: Adobe Illustrator 19.0.0, SVG Export Plug-In . SVG Version: 6.00 Build 0)  -->
<svg version="1.1" id="Capa_1" xmlns="http://www.w3.org/2000/svg" xmlns:xlink="http://www.w3.org/1999/xlink" x="0px" y="0px"
	 viewBox="0 0 512 512" style="enable-background:new 0 0 512 512;" xml:space="preserve">
<g>
	<g>
		<path d="M147.873,316.619h-4.453c-3.066,0-5.561-2.495-5.561-5.561c0-3.066,2.495-5.561,5.561-5.561h4.453
			c3.066,0,5.561,2.495,5.561,5.561h30.238c0-15.195-9.521-28.2-22.906-33.387v-20.048h-30.238v20.048
			c-13.385,5.187-22.906,18.192-22.906,33.387c0,19.739,16.059,35.799,35.799,35.799h4.453c3.066,0,5.561,2.495,5.561,5.561
			c0,3.066-2.495,5.561-5.561,5.561h-4.453c-3.066,0-5.561-2.495-5.561-5.561h-30.238c0,15.195,9.521,28.2,22.906,33.387v20.048
			h30.238v-20.048c13.385-5.187,22.906-18.192,22.906-33.387C183.672,332.678,167.612,316.619,147.873,316.619z"/>
	</g>
</g>
<g>
	<g>
		<path d="M60.476,103.409v110.873h170.341V103.409H60.476z M200.579,184.044H90.714v-50.397h109.865V184.044z"/>
	</g>
</g>
<g>
	<g>
		<path d="M477.118,96.051L512,63.954l-20.475-22.251l-80.66,74.223V385.63c0,11.115-9.043,20.159-20.159,20.159
			s-20.159-9.043-20.159-20.159V233.432c0-27.789-22.608-50.397-50.397-50.397h-28.858V42.933H0v427.364h291.293h40.098v-30.238
			h-40.098V213.274h28.857c11.115,0,20.159,9.043,20.159,20.159V385.63c0,27.789,22.608,50.397,50.397,50.397
			c27.789,0,50.397-22.608,50.397-50.397V178.291c4.639,1.619,9.616,2.51,14.799,2.51c24.833,0,45.038-20.204,45.038-45.037
			C500.938,118.599,491.282,103.649,477.118,96.051z M261.055,440.059H30.238V73.171h230.817V440.059z M455.901,150.564
			c-8.16,0-14.799-6.639-14.799-14.799c0-8.161,6.639-14.801,14.799-14.801s14.799,6.639,14.799,14.801
			C470.7,143.925,464.061,150.564,455.901,150.564z"/>
	</g>
</g>
<g>
</g>
<g>
</g>
<g>
</g>
<g>
</g>
<g>
</g>
<g>
</g>
<g>
</g>
<g>
</g>
<g>
</g>
<g>
</g>
<g>
</g>
<g>
</g>
<g>
</g>
<g>
</g>
<g>
</g>
</svg>
