<svg id="Capa_1" enable-background="new 0 0 511.999 511.999" height="512" viewBox="0 0 511.999 511.999" width="512" xmlns="http://www.w3.org/2000/svg"><g><path d="m55.75 437h15v-255.5h121.5v-15h-151.5v-68.25h-15v83.25h30z"/><path d="m25.75 511.999h166.5v-15h-151.5v-30h318v30h-151.5v15h166.5v-60h-348z"/><path d="m40.75 15h318v151.5h-151.5v15h121.5v255.5h15v-255.5h30v-181.5h-348v83.25h15z"/><path d="m192.25 30h-136.5v121.499h288v-121.499h-136.5v15h121.5v91.499h-258v-91.499h121.5z"/><path d="m486.249 80.499v-15c-24.813 0-45 20.187-45 45v41.205l-30 28.126v95.125h75v-45h-15v30h-45v-73.626l25.466-23.875h19.534v52.501h15v-67.501h-30v-36.954c0-16.543 13.458-30.001 30-30.001z"/><path d="m441.249 459.499c0 8.271-6.729 15-14.999 15-8.271 0-15.001-6.729-15.001-15v-120.25c0-16.542-13.458-30-29.999-30h-7.5v-22.744h-15v60.487h15v-22.742h7.5c8.271 0 14.999 6.729 14.999 15v120.25c0 16.542 13.458 30 30.001 30 16.541 0 29.999-13.458 29.999-30v-169.546h-15z"/><path d="m441.249 190.578h15v15h-15z"/><path d="m147.25 335.499c0 29.071 23.551 52.722 52.5 52.722s52.5-23.651 52.5-52.722c0-21.038-16.341-44.04-32.143-66.285-5.101-7.18-9.918-13.961-14.019-20.444l-6.338-10.022-6.338 10.022c-4.101 6.483-8.918 13.264-14.019 20.444-15.802 22.245-32.143 45.247-32.143 66.285zm52.5-69.158c2.592 3.765 5.318 7.603 8.128 11.559 13.768 19.38 29.372 41.347 29.372 57.599 0 20.8-16.822 37.722-37.5 37.722s-37.5-16.922-37.5-37.722c0-16.252 15.604-38.218 29.372-57.599 2.81-3.956 5.536-7.794 8.128-11.559z"/><path d="m207.25 327.999h15v15h-15z"/><path d="m115.75 422h15v15h-15z"/><path d="m298.75 226.499h15v45h-15z"/><path d="m85.75 422h15v15h-15z"/><path d="m298.75 196.499h15v15h-15z"/><path d="m177.25 83.25h15v15h-15z"/><path d="m207.25 83.25h15v15h-15z"/><path d="m298.75 59.999h15v15h-15z"/><path d="m85.75 106.5h15v15h-15z"/></g></svg>