<?xml version="1.0" encoding="utf-8"?>
<!-- Generator: Adobe Illustrator 19.0.0, SVG Export Plug-In . SVG Version: 6.00 Build 0)  -->
<svg version="1.1" id="Capa_1" xmlns="http://www.w3.org/2000/svg" xmlns:xlink="http://www.w3.org/1999/xlink" x="0px" y="0px"
	 viewBox="-66 158.1 477.9 477.9" style="enable-background:new -66 158.1 477.9 477.9;" xml:space="preserve">
<style type="text/css">
	.st0{fill:#17BD4A;}
</style>
<g>
	<g>
		<path class="st0" d="M394.8,158.1H207.1c-4.5,0-8.9,1.8-12.1,5l-256,256c-6.7,6.7-6.7,17.5,0,24.1c0,0,0,0,0,0L126.7,631
			c6.7,6.7,17.5,6.7,24.1,0l256-256c3.2-3.2,5-7.6,5-12.1V175.2C411.9,165.8,404.2,158.1,394.8,158.1z M292.4,311.7
			c-18.9,0-34.1-15.3-34.1-34.1s15.3-34.1,34.1-34.1s34.1,15.3,34.1,34.1S311.3,311.7,292.4,311.7z"/>
	</g>
</g>
</svg>
