<?xml version="1.0" encoding="iso-8859-1"?>
<!-- Generator: Adobe Illustrator 19.0.0, SVG Export Plug-In . SVG Version: 6.00 Build 0)  -->
<svg version="1.1" id="Capa_1" xmlns="http://www.w3.org/2000/svg" xmlns:xlink="http://www.w3.org/1999/xlink" x="0px" y="0px"
	 viewBox="0 0 368.194 368.194" style="enable-background:new 0 0 368.194 368.194;" xml:space="preserve">
<g>
	<g>
		<path d="M208.24,52.697l-0.56-0.28c-2.828-2.757-6.61-4.318-10.56-4.36H66.4c-8.518,0.022-15.418,6.922-15.44,15.44v106.24
			c0.001,4.083,1.627,7.998,4.52,10.88c2.894,2.899,6.824,4.526,10.92,4.52h30.72c2.761,0.022,5.018-2.198,5.04-4.959
			c0-0.04,0-0.081,0-0.121c0.012-0.2,0.012-0.4,0-0.6c0-0.52,0-0.88,0-1.08c0-0.2,0-0.6,0-1.28c0-16.425,13.315-29.74,29.74-29.74
			s29.74,13.315,29.74,29.74v1.28v1.28c-0.231,2.75,1.81,5.167,4.56,5.4h31.16c4.083-0.001,7.998-1.627,10.88-4.52
			c2.893-2.882,4.519-6.797,4.52-10.88V63.617C212.766,59.521,211.139,55.591,208.24,52.697z M197.12,175.137h-25.68
			c-1.206-21.926-19.958-38.722-41.884-37.516c-20.241,1.113-36.403,17.276-37.516,37.516H66.4c-1.498,0.045-2.946-0.535-4-1.6
			c-1.061-1.056-1.64-2.503-1.6-4V63.617c0.022-2.973,2.427-5.378,5.4-5.4h130.92c1.345-0.003,2.643,0.496,3.64,1.4
			c1.065,1.054,1.645,2.502,1.6,4l0.16,106.12C202.52,172.719,200.102,175.137,197.12,175.137z"/>
	</g>
</g>
<g>
	<g>
		<path d="M364.114,46.291c-2.609-2.607-6.146-4.073-9.834-4.074h-40.44c-1.546-0.038-3.023,0.641-4,1.84l-22.36,24
			c-0.932,1.006-1.409,2.351-1.32,3.72v22.92c0.004,1.873,1.053,3.586,2.72,4.44v158.88c-0.02,2.911-1.763,5.534-4.44,6.68
			c-1.29,0.425-2.642,0.628-4,0.6H269.4v-2.2c0-2.853-1.137-5.588-3.16-7.6c-2.014-2.019-4.748-3.156-7.6-3.16H242V35.377
			c-0.039-5.725-2.289-11.214-6.28-15.32l-0.28-0.32c-4.169-4.2-9.842-6.561-15.76-6.56h-176
			c-12.296,0.022-22.258,9.984-22.28,22.28v287h-5.12c-4.306,0.002-8.436,1.714-11.48,4.76c-3.061,3.038-4.788,7.168-4.8,11.48
			c0.002,4.326,1.729,8.473,4.8,11.52c3.038,3.061,7.168,4.788,11.48,4.8h230.76c8.982-0.022,16.258-7.298,16.28-16.28
			c-0.01-4.156-1.614-8.15-4.48-11.16l-0.32-0.32c-3.047-3.07-7.194-4.798-11.52-4.8h-5v-14.4h16.68
			c5.933-0.022,10.738-4.827,10.76-10.76v-2.2h11.08c5.278-0.044,10.512-0.977,15.48-2.76c9.045-3.766,16.234-10.955,20-20
			c1.929-4.529,2.936-9.397,2.96-14.32h0v-159c0.823-0.419,1.514-1.055,2-1.84l17.36-27.2h16c3.668,0.018,7.192-1.421,9.8-4
			C369.555,60.539,369.552,51.726,364.114,46.291z M31.52,35.377c0.022-6.773,5.507-12.258,12.28-12.28h176
			c3.257-0.003,6.381,1.293,8.68,3.6l0.24,0.2c2.176,2.272,3.393,5.294,3.4,8.44v287.12H31.52V35.377z M247.04,332.297l0,0.2
			c1.666-0.004,3.265,0.658,4.44,1.84h0.2c1.06,1.157,1.646,2.671,1.64,4.24c0,3.468-2.812,6.28-6.28,6.28H16.28
			c-1.666,0.004-3.265-0.658-4.44-1.84c-1.182-1.175-1.844-2.774-1.84-4.44c-0.004-1.666,0.658-3.265,1.84-4.44
			c1.175-1.182,2.774-1.844,4.44-1.84H247.04z M259.4,270.297v27c0,0.42-0.34,0.76-0.76,0.76c0,0,0,0,0,0H242v-35.72h16.68
			c0.193-0.006,0.381,0.066,0.52,0.2c0.145,0.135,0.231,0.322,0.24,0.52L259.4,270.297z M306.88,268.377
			c-4.178,10.164-14.091,16.789-25.08,16.76h-12.4v-9.88h12.36c9.521,0,17.24-7.719,17.24-17.24V99.537h9.88l0.04,158.48
			C308.926,261.571,308.233,265.091,306.88,268.377z M357.24,58.697c-0.742,0.715-1.73,1.116-2.76,1.12H335.6
			c-1.704,0.007-3.287,0.882-4.2,2.32l-17.44,27.44h-17.68v-16.28L316,52.057h38.48c2.205,0.132,3.886,2.026,3.754,4.232
			C358.181,57.18,357.831,58.028,357.24,58.697z"/>
	</g>
</g>
<g>
</g>
<g>
</g>
<g>
</g>
<g>
</g>
<g>
</g>
<g>
</g>
<g>
</g>
<g>
</g>
<g>
</g>
<g>
</g>
<g>
</g>
<g>
</g>
<g>
</g>
<g>
</g>
<g>
</g>
</svg>
