<?xml version="1.0" encoding="iso-8859-1"?>
<!-- Generator: Adobe Illustrator 19.0.0, SVG Export Plug-In . SVG Version: 6.00 Build 0)  -->
<svg version="1.1" id="Capa_1" xmlns="http://www.w3.org/2000/svg" xmlns:xlink="http://www.w3.org/1999/xlink" x="0px" y="0px"
	 viewBox="0 0 512 512" style="enable-background:new 0 0 512 512;" xml:space="preserve">
<g>
	<g>
		<g>
			<path d="M492,116h-76c-11.046,0-20,8.954-20,20c0,11.046,8.954,20,20,20h56v262c0,9.925-8.075,18-18,18s-18-8.075-18-18V296
				c0-11.046-8.954-20-20-20h-56V20c0-11.046-8.954-20-20-20H20C8.954,0,0,8.954,0,20v472c0,11.046,8.954,20,20,20h320
				c11.046,0,20-8.954,20-20V316h36v102c0,31.981,26.019,58,58,58c31.981,0,58-26.019,58-58V136C512,124.954,503.046,116,492,116z
				 M320,472H40V40h280V472z"/>
			<path d="M100,242h160c11.046,0,20-8.954,20-20V100c0-11.046-8.954-20-20-20H100c-11.046,0-20,8.954-20,20v122
				C80,233.046,88.954,242,100,242z M120,120h120v82H120V120z"/>
		</g>
	</g>
</g>
<g>
</g>
<g>
</g>
<g>
</g>
<g>
</g>
<g>
</g>
<g>
</g>
<g>
</g>
<g>
</g>
<g>
</g>
<g>
</g>
<g>
</g>
<g>
</g>
<g>
</g>
<g>
</g>
<g>
</g>
</svg>
