<?xml version="1.0" encoding="iso-8859-1"?>
<!-- Generator: Adobe Illustrator 19.0.0, SVG Export Plug-In . SVG Version: 6.00 Build 0)  -->
<svg version="1.1" id="Layer_1" xmlns="http://www.w3.org/2000/svg" xmlns:xlink="http://www.w3.org/1999/xlink" x="0px" y="0px"
	 viewBox="0 0 512 512" style="enable-background:new 0 0 512 512;" xml:space="preserve">
<g>
	<g>
		<polygon points="47.87,52.553 47.87,139.967 63.48,139.967 63.48,68.163 368.39,68.163 368.39,139.967 384,139.967 384,52.553 		
			"/>
	</g>
</g>
<g>
	<g>
		<polygon points="71.805,28.618 71.805,44.228 392.325,44.228 392.325,131.642 407.935,131.642 407.935,28.618 		"/>
	</g>
</g>
<g>
	<g>
		<rect x="40.585" y="180.553" width="15.61" height="271.61"/>
	</g>
</g>
<g>
	<g>
		<path d="M328.139,388.097v63.576h151.515v-63.576H328.139z M464.044,436.063H343.749v-32.357h120.295V436.063z"/>
	</g>
</g>
<g>
	<g>
		<rect x="360.065" y="411.577" width="87.415" height="15.61"/>
	</g>
</g>
<g>
	<g>
		<path d="M71.805,76.488v63.48h15.61v-47.87h86.47c-13.244,11.658-21.622,28.734-21.622,47.87h15.61
			c0-24.311,18.865-45.231,43.004-47.87h10.304c24.14,2.639,43.005,23.559,43.005,47.87h15.61c0-19.135-8.376-36.211-21.622-47.87
			h86.282v47.87h15.61v-63.48H71.805z"/>
	</g>
</g>
<g>
	<g>
		<rect x="416.26" y="116.033" width="15.61" height="15.61"/>
	</g>
</g>
<g>
	<g>
		<path d="M447.866,84.813H416.26v15.61h31.606c9.096,0,16.225,6.851,16.261,15.61H447.48v15.61h16.65v8.325h15.61v-23.869
			C479.74,98.847,465.441,84.813,447.866,84.813z"/>
	</g>
</g>
<g>
	<g>
		<path d="M40.151,148.293c-10.699,0-19.927-6.994-23.154-16.65H32.26v-15.61H17.218c3.43-9.3,12.507-15.974,22.327-15.974v-15.61
			C17.691,84.449,0,102.24,0,124.106c0,0.084,0,0.167,0,0.251v319.51c0,21.79,18.012,39.516,40.151,39.516H512V148.293H40.151z
			 M496.39,467.772H40.151c-13.533,0-24.542-10.724-24.542-23.905v-288.46c6.765,5.319,15.288,8.495,24.542,8.495H496.39V467.772z"
			/>
	</g>
</g>
<g>
	<g>
		<rect x="464.13" y="356.423" width="15.61" height="15.61"/>
	</g>
</g>
<g>
	<g>
		<rect x="440.195" y="356.423" width="15.61" height="15.61"/>
	</g>
</g>
<g>
	<g>
		<rect x="416.26" y="356.423" width="15.61" height="15.61"/>
	</g>
</g>
<g>
</g>
<g>
</g>
<g>
</g>
<g>
</g>
<g>
</g>
<g>
</g>
<g>
</g>
<g>
</g>
<g>
</g>
<g>
</g>
<g>
</g>
<g>
</g>
<g>
</g>
<g>
</g>
<g>
</g>
</svg>
